<svg version="1.1" id="Layer_1" xmlns="http://www.w3.org/2000/svg" xmlns:xlink="http://www.w3.org/1999/xlink" x="0px" y="0px"
	 width="100%" viewBox="0 0 512 512" enable-background="new 0 0 512 512" xml:space="preserve">
<path fill="#755EFB" opacity="1.000000" stroke="none" 
	d="
M240.000000,513.000000 
	C160.019394,513.000000 80.538788,513.000000 1.029092,513.000000 
	C1.029092,342.394379 1.029092,171.788727 1.029092,1.091547 
	C171.563965,1.091547 342.127991,1.091547 512.846008,1.091547 
	C512.846008,171.666565 512.846008,342.333252 512.846008,513.000000 
	C422.122040,513.000000 331.311005,513.000000 240.000000,513.000000 
M231.398636,311.147186 
	C232.903687,313.545563 234.402817,315.947723 235.915039,318.341583 
	C239.261536,323.639038 240.372299,323.640747 243.763702,318.223450 
	C256.403412,298.033325 269.017548,277.827148 281.655914,257.636169 
	C282.457092,256.356232 283.382812,255.154221 285.009369,252.833252 
	C285.009369,255.142395 285.009338,255.967087 285.009369,256.791779 
	C285.010254,277.290710 285.087738,297.790161 284.951935,318.288177 
	C284.922302,322.761536 286.551453,324.753967 291.077118,324.603180 
	C295.904785,324.442291 300.742218,324.592346 305.575104,324.562531 
	C311.673462,324.524902 312.557526,323.683502 312.559692,317.628418 
	C312.575989,272.297455 312.610046,226.966354 312.444916,181.636002 
	C312.436737,179.393570 310.628265,177.157715 309.658081,174.918793 
	C307.811401,176.238205 305.386841,177.170242 304.204010,178.934677 
	C283.888824,209.239517 263.729431,239.648819 243.524521,270.027618 
	C242.394516,271.726624 241.166077,273.360199 239.740860,275.365570 
	C238.222153,273.174500 237.158203,271.691528 236.147171,270.173279 
	C215.832748,239.667175 195.553131,209.137756 175.136932,178.699951 
	C174.022522,177.038498 171.778992,176.134415 170.061035,174.877777 
	C169.044678,176.895782 167.148560,178.910568 167.141159,180.932266 
	C166.973282,226.762589 167.049622,272.593750 166.954376,318.424469 
	C166.944855,323.004639 168.796234,324.750397 173.213165,324.603760 
	C178.040909,324.443481 182.878296,324.596069 187.711136,324.561310 
	C193.689606,324.518341 194.553955,323.647430 194.560974,317.492401 
	C194.582825,298.326752 194.569580,279.161072 194.569946,259.995392 
	C194.569977,258.267059 194.569931,256.538696 194.569931,254.810364 
	C195.019791,254.690613 195.469650,254.570862 195.919495,254.451111 
	C207.619675,273.144012 219.319855,291.836884 231.398636,311.147186 
M349.797760,284.181763 
	C344.675842,295.204742 339.533234,306.218140 334.440735,317.254730 
	C331.937012,322.680847 333.142578,324.509583 339.232147,324.558228 
	C345.064606,324.604828 350.902924,324.422302 356.728577,324.627106 
	C359.820160,324.735779 361.618408,323.784393 362.774109,320.791565 
	C364.691193,315.827087 366.763428,310.884369 369.291840,306.214844 
	C370.179626,304.575226 372.588776,302.755493 374.325317,302.733215 
	C393.487244,302.487030 412.654419,302.500549 431.817017,302.720062 
	C433.454376,302.738800 435.768646,304.369476 436.566010,305.884277 
	C439.196686,310.881927 441.065125,316.280640 443.692810,321.280151 
	C444.483917,322.785400 446.744476,324.309357 448.421234,324.415710 
	C454.396851,324.794617 460.411041,324.592743 466.410400,324.561951 
	C472.959656,324.528320 474.081696,322.720947 471.277985,316.676788 
	C450.048401,270.910919 428.831390,225.139114 407.481384,179.429459 
	C406.570282,177.478867 404.391510,176.120392 402.803253,174.486084 
	C401.363190,176.088135 399.429993,177.459366 398.556183,179.326431 
	C382.323486,214.010651 366.216888,248.753922 349.797760,284.181763 
M106.579041,274.500122 
	C106.580292,252.838074 106.648422,231.175598 106.517365,209.514359 
	C106.495346,205.876266 107.534218,204.497696 111.323822,204.595673 
	C120.149315,204.823807 128.984848,204.686310 137.816193,204.657425 
	C144.113449,204.636841 144.905777,203.799255 144.923737,197.333466 
	C144.936707,192.667831 144.826691,187.999435 144.954941,183.337326 
	C145.062912,179.412399 143.462753,177.414032 139.413895,177.417130 
	C108.254005,177.441025 77.094086,177.440506 45.934189,177.421738 
	C42.122269,177.419434 40.554012,179.307358 40.613434,183.010712 
	C40.698971,188.341507 40.711006,193.676117 40.610619,199.006409 
	C40.534592,203.043137 42.421436,204.731613 46.380447,204.684174 
	C53.711117,204.596313 61.043633,204.663071 68.375381,204.664780 
	C71.792091,204.665588 75.208801,204.664917 79.006493,204.664917 
	C79.006493,207.529984 79.006493,209.502747 79.006493,211.475494 
	C79.006554,246.801208 79.002472,282.126923 79.010460,317.452637 
	C79.011909,323.879425 79.696594,324.543823 86.228134,324.575043 
	C90.560432,324.595734 94.892998,324.594940 99.225304,324.575195 
	C105.739586,324.545532 106.558861,323.783295 106.570457,317.491089 
	C106.596252,303.494141 106.578461,289.497131 106.579041,274.500122 
z"/>
<path fill="#F1F1F3" opacity="1.000000" stroke="none" 
	d="
M231.209335,310.838501 
	C219.319855,291.836884 207.619675,273.144012 195.919495,254.451111 
	C195.469650,254.570862 195.019791,254.690613 194.569931,254.810364 
	C194.569931,256.538696 194.569977,258.267059 194.569946,259.995392 
	C194.569580,279.161072 194.582825,298.326752 194.560974,317.492401 
	C194.553955,323.647430 193.689606,324.518341 187.711136,324.561310 
	C182.878296,324.596069 178.040909,324.443481 173.213165,324.603760 
	C168.796234,324.750397 166.944855,323.004639 166.954376,318.424469 
	C167.049622,272.593750 166.973282,226.762589 167.141159,180.932266 
	C167.148560,178.910568 169.044678,176.895782 170.061035,174.877777 
	C171.778992,176.134415 174.022522,177.038498 175.136932,178.699951 
	C195.553131,209.137756 215.832748,239.667175 236.147171,270.173279 
	C237.158203,271.691528 238.222153,273.174500 239.740860,275.365570 
	C241.166077,273.360199 242.394516,271.726624 243.524521,270.027618 
	C263.729431,239.648819 283.888824,209.239517 304.204010,178.934677 
	C305.386841,177.170242 307.811401,176.238205 309.658081,174.918793 
	C310.628265,177.157715 312.436737,179.393570 312.444916,181.636002 
	C312.610046,226.966354 312.575989,272.297455 312.559692,317.628418 
	C312.557526,323.683502 311.673462,324.524902 305.575104,324.562531 
	C300.742218,324.592346 295.904785,324.442291 291.077118,324.603180 
	C286.551453,324.753967 284.922302,322.761536 284.951935,318.288177 
	C285.087738,297.790161 285.010254,277.290710 285.009369,256.791779 
	C285.009338,255.967087 285.009369,255.142395 285.009369,252.833252 
	C283.382812,255.154221 282.457092,256.356232 281.655914,257.636169 
	C269.017548,277.827148 256.403412,298.033325 243.763702,318.223450 
	C240.372299,323.640747 239.261536,323.639038 235.915039,318.341583 
	C234.402817,315.947723 232.903687,313.545563 231.209335,310.838501 
z"/>
<path fill="#F1F1F3" opacity="1.000000" stroke="none" 
	d="
M349.940796,283.833252 
	C366.216888,248.753922 382.323486,214.010651 398.556183,179.326431 
	C399.429993,177.459366 401.363190,176.088135 402.803284,174.486084 
	C404.391510,176.120392 406.570282,177.478867 407.481384,179.429459 
	C428.831390,225.139114 450.048401,270.910919 471.277985,316.676788 
	C474.081696,322.720947 472.959656,324.528320 466.410400,324.561951 
	C460.411041,324.592743 454.396851,324.794617 448.421234,324.415710 
	C446.744476,324.309357 444.483917,322.785400 443.692810,321.280151 
	C441.065125,316.280640 439.196686,310.881927 436.566010,305.884277 
	C435.768646,304.369476 433.454376,302.738800 431.817017,302.720062 
	C412.654419,302.500549 393.487244,302.487030 374.325317,302.733215 
	C372.588776,302.755493 370.179626,304.575226 369.291840,306.214844 
	C366.763428,310.884369 364.691193,315.827087 362.774109,320.791565 
	C361.618408,323.784393 359.820160,324.735779 356.728577,324.627106 
	C350.902924,324.422302 345.064606,324.604828 339.232147,324.558228 
	C333.142578,324.509583 331.937012,322.680847 334.440735,317.254730 
	C339.533234,306.218140 344.675842,295.204742 349.940796,283.833252 
M408.903687,244.642517 
	C407.114410,240.799484 405.325134,236.956467 402.974335,231.907455 
	C395.716553,247.872253 388.996521,262.654175 381.985229,278.076782 
	C396.471771,278.076782 409.687073,278.076782 424.036804,278.076782 
	C418.868744,266.691711 414.023956,256.018890 408.903687,244.642517 
z"/>
<path fill="#F0EFF3" opacity="1.000000" stroke="none" 
	d="
M106.578735,275.000122 
	C106.578461,289.497131 106.596252,303.494141 106.570457,317.491089 
	C106.558861,323.783295 105.739586,324.545532 99.225304,324.575195 
	C94.892998,324.594940 90.560432,324.595734 86.228134,324.575043 
	C79.696594,324.543823 79.011909,323.879425 79.010460,317.452637 
	C79.002472,282.126923 79.006554,246.801208 79.006493,211.475494 
	C79.006493,209.502747 79.006493,207.529984 79.006493,204.664917 
	C75.208801,204.664917 71.792091,204.665588 68.375381,204.664780 
	C61.043633,204.663071 53.711117,204.596313 46.380447,204.684174 
	C42.421436,204.731613 40.534592,203.043137 40.610619,199.006409 
	C40.711006,193.676117 40.698971,188.341507 40.613434,183.010712 
	C40.554012,179.307358 42.122269,177.419434 45.934189,177.421738 
	C77.094086,177.440506 108.254005,177.441025 139.413895,177.417130 
	C143.462753,177.414032 145.062912,179.412399 144.954941,183.337326 
	C144.826691,187.999435 144.936707,192.667831 144.923737,197.333466 
	C144.905777,203.799255 144.113449,204.636841 137.816193,204.657425 
	C128.984848,204.686310 120.149315,204.823807 111.323822,204.595673 
	C107.534218,204.497696 106.495346,205.876266 106.517365,209.514359 
	C106.648422,231.175598 106.580292,252.838074 106.578735,275.000122 
z"/>
<path fill="#7660FB" opacity="1.000000" stroke="none" 
	d="
M409.041443,244.994293 
	C414.023956,256.018890 418.868744,266.691711 424.036804,278.076782 
	C409.687073,278.076782 396.471771,278.076782 381.985229,278.076782 
	C388.996521,262.654175 395.716553,247.872253 402.974335,231.907455 
	C405.325134,236.956467 407.114410,240.799484 409.041443,244.994293 
z"/>
</svg>