<svg version="1.1" id="Layer_1" xmlns="http://www.w3.org/2000/svg" xmlns:xlink="http://www.w3.org/1999/xlink" x="0px" y="0px"
	 width="100%" viewBox="0 0 512 512" enable-background="new 0 0 512 512" xml:space="preserve">
<path fill="#463C84" opacity="1.000000" stroke="none" 
	d="
M283.000000,513.000000 
	C188.689560,513.000000 94.879120,513.000000 1.034338,513.000000 
	C1.034338,342.397858 1.034338,171.795731 1.034338,1.096792 
	C171.560455,1.096792 342.121002,1.096792 512.840759,1.096792 
	C512.840759,171.666550 512.840759,342.333252 512.840759,513.000000 
	C436.462372,513.000000 359.981171,513.000000 283.000000,513.000000 
M203.956192,306.499390 
	C203.668457,274.101471 203.380707,241.703552 203.092972,209.305618 
	C204.112625,210.790131 204.591751,212.452408 205.042648,214.122345 
	C214.800842,250.262604 224.525513,286.412048 234.426178,322.513245 
	C234.809891,323.912384 236.823761,325.766449 238.169479,325.845123 
	C244.298492,326.203583 250.460236,326.002319 257.444702,326.002319 
	C269.222717,286.438110 280.979797,246.944244 292.501068,208.242432 
	C292.501068,246.852066 292.501068,286.243866 292.501068,325.751862 
	C300.244263,325.751862 307.676605,325.751862 315.308319,325.751862 
	C315.486084,324.747314 315.747711,323.957550 315.748169,323.167694 
	C315.772766,279.517853 315.748749,235.867966 315.832916,192.218277 
	C315.839417,188.841019 314.105865,188.429703 311.458008,188.444000 
	C302.461731,188.492554 293.462708,188.576477 284.469788,188.396194 
	C281.430084,188.335251 280.021118,189.459824 279.145386,192.290115 
	C269.115540,224.706207 258.999390,257.095612 248.887894,289.486420 
	C248.608566,290.381195 248.124054,291.211884 247.514023,292.562073 
	C247.029770,290.876984 246.707779,289.768738 246.392761,288.658508 
	C237.401932,256.972565 228.361725,225.300415 219.487595,193.581802 
	C218.427612,189.793015 216.861359,188.161926 212.651718,188.346085 
	C204.171219,188.717072 195.651733,188.720062 187.170685,188.355164 
	C182.262833,188.143997 181.094040,189.887939 181.113235,194.592621 
	C181.283920,236.409195 181.212540,278.226746 181.212570,320.044037 
	C181.212570,321.830872 181.212570,323.617737 181.212570,325.686890 
	C189.027496,325.686890 196.239258,325.686890 203.956177,325.686890 
	C203.956177,319.414825 203.956177,313.456909 203.956192,306.499390 
M347.896637,277.274567 
	C342.898010,293.282104 337.899384,309.289642 332.771149,325.712158 
	C341.042419,325.712158 348.787231,325.712158 356.815460,325.712158 
	C359.977051,315.367645 363.220215,305.062683 366.239471,294.692505 
	C367.157837,291.538116 368.527435,290.090729 372.106873,290.154083 
	C384.763000,290.378204 397.427368,290.360260 410.084381,290.162750 
	C413.530365,290.108948 415.099701,291.251709 416.081909,294.535950 
	C418.893646,303.937775 421.955750,313.268585 425.150360,322.547821 
	C425.621674,323.916840 427.308655,325.792603 428.495972,325.839386 
	C436.090149,326.138550 443.701874,325.991913 451.534882,325.991913 
	C451.321442,324.782410 451.284515,324.115021 451.083801,323.501160 
	C436.711975,279.542267 422.358337,235.577255 407.803192,191.679077 
	C407.332275,190.258743 404.826965,188.682678 403.209320,188.614243 
	C395.560242,188.290634 387.882080,188.672318 380.230774,188.376465 
	C376.494446,188.232010 375.061951,189.713531 374.022980,193.095734 
	C365.474060,220.925552 356.752808,248.702438 347.896637,277.274567 
M83.497726,208.991043 
	C88.917320,208.991043 94.336906,208.991043 100.191231,208.991043 
	C100.191231,248.395782 100.191231,286.969757 100.191231,325.605469 
	C108.534302,325.605469 116.402939,325.605469 124.835678,325.605469 
	C124.835678,286.645477 124.835678,248.085739 124.835678,208.887772 
	C137.782028,208.887772 150.166565,208.887772 162.623535,208.887772 
	C162.623535,201.842209 162.623535,195.444855 162.623535,188.911804 
	C128.933167,188.911804 95.578262,188.911804 62.214512,188.911804 
	C62.214512,195.775375 62.214512,202.174561 62.214512,208.991043 
	C69.232170,208.991043 75.865341,208.991043 83.497726,208.991043 
z"/>
<path fill="#C8C7C9" opacity="1.000000" stroke="none" 
	d="
M203.956177,306.999207 
	C203.956177,313.456909 203.956177,319.414825 203.956177,325.686890 
	C196.239258,325.686890 189.027496,325.686890 181.212570,325.686890 
	C181.212570,323.617737 181.212570,321.830872 181.212570,320.044037 
	C181.212540,278.226746 181.283920,236.409195 181.113235,194.592621 
	C181.094040,189.887939 182.262833,188.143997 187.170685,188.355164 
	C195.651733,188.720062 204.171219,188.717072 212.651718,188.346085 
	C216.861359,188.161926 218.427612,189.793015 219.487595,193.581802 
	C228.361725,225.300415 237.401932,256.972565 246.392761,288.658508 
	C246.707779,289.768738 247.029770,290.876984 247.514023,292.562073 
	C248.124054,291.211884 248.608566,290.381195 248.887894,289.486420 
	C258.999390,257.095612 269.115540,224.706207 279.145386,192.290115 
	C280.021118,189.459824 281.430084,188.335251 284.469788,188.396194 
	C293.462708,188.576477 302.461731,188.492554 311.458008,188.444000 
	C314.105865,188.429703 315.839417,188.841019 315.832916,192.218277 
	C315.748749,235.867966 315.772766,279.517853 315.748169,323.167694 
	C315.747711,323.957550 315.486084,324.747314 315.308319,325.751862 
	C307.676605,325.751862 300.244263,325.751862 292.501068,325.751862 
	C292.501068,286.243866 292.501068,246.852066 292.501068,208.242432 
	C280.979797,246.944244 269.222717,286.438110 257.444702,326.002319 
	C250.460236,326.002319 244.298492,326.203583 238.169479,325.845123 
	C236.823761,325.766449 234.809891,323.912384 234.426178,322.513245 
	C224.525513,286.412048 214.800842,250.262604 205.042648,214.122345 
	C204.591751,212.452408 204.112625,210.790131 203.092972,209.305618 
	C203.380707,241.703552 203.668457,274.101471 203.956177,306.999207 
z"/>
<path fill="#C9C8C9" opacity="1.000000" stroke="none" 
	d="
M347.990234,276.884949 
	C356.752808,248.702438 365.474060,220.925552 374.022980,193.095734 
	C375.061951,189.713531 376.494446,188.232010 380.230774,188.376465 
	C387.882080,188.672318 395.560242,188.290634 403.209320,188.614243 
	C404.826965,188.682678 407.332275,190.258743 407.803192,191.679077 
	C422.358337,235.577255 436.711975,279.542267 451.083801,323.501160 
	C451.284515,324.115021 451.321442,324.782410 451.534882,325.991913 
	C443.701874,325.991913 436.090149,326.138550 428.495972,325.839386 
	C427.308655,325.792603 425.621674,323.916840 425.150360,322.547821 
	C421.955750,313.268585 418.893646,303.937775 416.081909,294.535950 
	C415.099701,291.251709 413.530365,290.108948 410.084381,290.162750 
	C397.427368,290.360260 384.763000,290.378204 372.106873,290.154083 
	C368.527435,290.090729 367.157837,291.538116 366.239471,294.692505 
	C363.220215,305.062683 359.977051,315.367645 356.815460,325.712158 
	C348.787231,325.712158 341.042419,325.712158 332.771149,325.712158 
	C337.899384,309.289642 342.898010,293.282104 347.990234,276.884949 
M378.366608,250.889404 
	C376.511230,257.042419 374.655823,263.195435 372.742981,269.538879 
	C385.171783,269.538879 396.995270,269.538879 409.313782,269.538879 
	C403.014587,249.081100 396.874939,229.141525 390.594696,208.745270 
	C386.524994,222.855927 382.590485,236.497940 378.366608,250.889404 
z"/>
<path fill="#C7C7C8" opacity="1.000000" stroke="none" 
	d="
M82.998123,208.991043 
	C75.865341,208.991043 69.232170,208.991043 62.214512,208.991043 
	C62.214512,202.174561 62.214512,195.775375 62.214512,188.911804 
	C95.578262,188.911804 128.933167,188.911804 162.623535,188.911804 
	C162.623535,195.444855 162.623535,201.842209 162.623535,208.887772 
	C150.166565,208.887772 137.782028,208.887772 124.835678,208.887772 
	C124.835678,248.085739 124.835678,286.645477 124.835678,325.605469 
	C116.402939,325.605469 108.534302,325.605469 100.191231,325.605469 
	C100.191231,286.969757 100.191231,248.395782 100.191231,208.991043 
	C94.336906,208.991043 88.917320,208.991043 82.998123,208.991043 
z"/>
<path fill="#483E85" opacity="1.000000" stroke="none" 
	d="
M378.511292,250.514679 
	C382.590485,236.497940 386.524994,222.855927 390.594696,208.745270 
	C396.874939,229.141525 403.014587,249.081100 409.313782,269.538879 
	C396.995270,269.538879 385.171783,269.538879 372.742981,269.538879 
	C374.655823,263.195435 376.511230,257.042419 378.511292,250.514679 
z"/>
</svg>